<svg width="40" height="40" viewBox="0 0 40 40" fill="none" xmlns="http://www.w3.org/2000/svg">
    <path d="M30.595 26.2266V22.6875H27.5012V21.0938H30.595V17.5312H32.2122V21.0938H35.3059V22.6875H32.2122V26.2266H30.595Z" fill="currentColor"/>
    <path d="M17.7991 28.3008C17.1663 28.3008 16.5334 28.2266 15.9006 28.0781C15.2756 27.9297 14.7053 27.6914 14.1897 27.3633C13.6741 27.0273 13.26 26.582 12.9475 26.0273C12.635 25.4727 12.4788 24.7891 12.4788 23.9766C12.4788 23.2109 12.5999 22.5547 12.842 22.0078C13.092 21.4609 13.4045 21.0312 13.7795 20.7188C14.178 20.3828 14.5413 20.1484 14.8694 20.0156C15.2053 19.8828 15.5374 19.7734 15.8655 19.6875C15.1311 19.5078 14.4749 19.125 13.8967 18.5391C13.3186 17.9453 13.0295 17.1484 13.0295 16.1484C13.0295 15.5703 13.1233 15.0312 13.3108 14.5312C13.4983 14.0312 13.7874 13.5898 14.178 13.207C14.5686 12.832 15.0647 12.5391 15.6663 12.3281C16.2678 12.1094 16.9788 12 17.7991 12C18.6272 12 19.3459 12.1094 19.9553 12.3281C20.5647 12.5469 21.0647 12.8438 21.4553 13.2188C21.8459 13.6016 22.135 14.043 22.3225 14.543C22.5178 15.043 22.6155 15.5781 22.6155 16.1484C22.6155 16.8125 22.467 17.3867 22.1702 17.8711C21.8811 18.3555 21.51 18.75 21.0569 19.0547C20.6038 19.3516 20.1272 19.5625 19.6272 19.6875C19.9709 19.7578 20.342 19.8828 20.7405 20.0625C21.1467 20.2422 21.5295 20.4961 21.8889 20.8242C22.2483 21.1445 22.5413 21.5625 22.7678 22.0781C23.0022 22.5938 23.1194 23.2266 23.1194 23.9766C23.1194 24.7891 22.9631 25.4727 22.6506 26.0273C22.3459 26.582 21.9358 27.0273 21.4202 27.3633C20.9045 27.6914 20.3303 27.9297 19.6975 28.0781C19.0725 28.2266 18.4397 28.3008 17.7991 28.3008ZM17.8225 18.8203C18.3069 18.6953 18.7444 18.5078 19.135 18.2578C19.4631 18.0547 19.7639 17.7695 20.0374 17.4023C20.3108 17.0352 20.4475 16.5781 20.4475 16.0312C20.4475 15.125 20.1897 14.5117 19.6741 14.1914C19.1584 13.8633 18.5413 13.6992 17.8225 13.6992C17.3694 13.6992 16.9397 13.7695 16.5334 13.9102C16.135 14.043 15.8108 14.2812 15.5608 14.625C15.3108 14.9609 15.1858 15.4297 15.1858 16.0312C15.1858 16.5781 15.3186 17.0391 15.5842 17.4141C15.8577 17.7812 16.1624 18.0664 16.4983 18.2695C16.8733 18.5039 17.3147 18.6875 17.8225 18.8203ZM17.7991 26.543C18.6897 26.543 19.4358 26.3477 20.0374 25.957C20.6467 25.5586 20.9514 24.8242 20.9514 23.7539C20.9514 23.082 20.7874 22.5234 20.4592 22.0781C20.1311 21.6328 19.7717 21.293 19.3811 21.0586C18.9358 20.7852 18.4124 20.582 17.8108 20.4492C17.2405 20.5898 16.7249 20.8008 16.2639 21.082C15.8655 21.3242 15.5061 21.6719 15.1858 22.125C14.8733 22.5781 14.717 23.1211 14.717 23.7539C14.717 24.8086 15.0061 25.5391 15.5842 25.9453C16.1624 26.3438 16.9006 26.543 17.7991 26.543Z" fill="currentColor"/>
    <path d="M7.04688 28.0195V14.4492L4.67969 15.7148L4 14.0625L7.50391 12.3633L9.0625 12.6797V28.0195H7.04688Z" fill="currentColor"/>
</svg>
