<svg width="19" height="19" viewBox="0 0 19 19" fill="none" xmlns="http://www.w3.org/2000/svg">
    <path d="M4.99581 10.0938L16.0312 10.0938C16.1887 10.0938 16.3397 10.0312 16.4511 9.91986C16.5624 9.80851 16.625 9.65749 16.625 9.50001C16.625 9.34254 16.5624 9.19152 16.4511 9.08017C16.3397 8.96882 16.1887 8.90626 16.0312 8.90626L4.99581 8.90626L9.32662 4.57664C9.43811 4.46515 9.50075 4.31393 9.50075 4.15626C9.50075 3.99859 9.43811 3.84738 9.32662 3.73589C9.21513 3.6244 9.06392 3.56176 8.90625 3.56176C8.74858 3.56176 8.59736 3.6244 8.48587 3.73589L3.14212 9.07964C3.08683 9.13479 3.04296 9.20032 3.01303 9.27245C2.9831 9.34458 2.96769 9.42192 2.96769 9.50001C2.96769 9.57811 2.9831 9.65544 3.01303 9.72758C3.04296 9.79971 3.08683 9.86524 3.14212 9.92039L8.48588 15.2641C8.59737 15.3756 8.74858 15.4383 8.90625 15.4383C9.06392 15.4383 9.21513 15.3756 9.32662 15.2641C9.43812 15.1526 9.50075 15.0014 9.50075 14.8438C9.50075 14.6861 9.43812 14.5349 9.32662 14.4234L4.99581 10.0938Z" fill="currentColor"/>
</svg>
