<svg width="32" height="32" viewBox="0 0 32 32" fill="none" xmlns="http://www.w3.org/2000/svg">
    <path d="M14.4761 20.5714L19.0475 16M19.0475 16L14.4761 11.4286M19.0475 16H5.33325" stroke="currentColor" stroke-linecap="round" stroke-linejoin="round"/>
    <path d="M6.85718 12.9524V8.36877C6.85717 7.5626 7.17659 6.78927 7.74549 6.21808C8.3144 5.64689 9.08644 5.32438 9.89261 5.32116L22.0099 5.27239C22.4103 5.27079 22.807 5.34808 23.1775 5.49985C23.548 5.65163 23.8849 5.8749 24.169 6.15693C24.4532 6.43896 24.679 6.77421 24.8335 7.14353C24.9881 7.51285 25.0684 7.909 25.0697 8.30935L25.1307 23.5916C25.1323 23.9919 25.0551 24.3885 24.9034 24.7588C24.7517 25.1292 24.5286 25.4661 24.2467 25.7502C23.9648 26.0343 23.6298 26.2602 23.2606 26.4148C22.8915 26.5694 22.4955 26.6498 22.0953 26.6514H9.9048C9.09652 26.6514 8.32134 26.3304 7.7498 25.7588C7.17827 25.1873 6.85718 24.4121 6.85718 23.6038V19.0476" stroke="currentColor" stroke-linecap="round" stroke-linejoin="round"/>
</svg>
