<svg width="174" height="32" viewBox="0 0 174 32" fill="none" xmlns="http://www.w3.org/2000/svg">
<g clip-path="url(#clip0_342_205)">
<path d="M28.9136 0.209136L3.10858 8.33393C0.766664 9.07129 -0.532512 11.5625 0.20679 13.8983L4.52358 27.5369C5.26288 29.8726 7.76071 31.1684 10.1026 30.431L35.9076 22.3062C38.2496 21.5689 39.5487 19.0776 38.8094 16.7418L34.4926 3.10331C33.7533 0.76754 31.2555 -0.528225 28.9136 0.209136Z" fill="url(#paint0_linear_342_205)"/>
<path d="M33.1398 3.75717L6.44519 8.17915C4.02254 8.58046 2.38478 10.8646 2.78715 13.2809L5.13659 27.3896C5.53897 29.8059 7.8291 31.4393 10.2518 31.038L36.9464 26.616C39.369 26.2147 41.0068 23.9306 40.6044 21.5143L38.255 7.40561C37.8526 4.98932 35.5625 3.35586 33.1398 3.75717Z" fill="white"/>
<path d="M37.3749 8.59256H10.3146C7.85877 8.59256 5.86792 10.5782 5.86792 13.0276V27.3296C5.86792 29.7789 7.85877 31.7646 10.3146 31.7646H37.3749C39.8307 31.7646 41.8216 29.7789 41.8216 27.3296V13.0276C41.8216 10.5782 39.8307 8.59256 37.3749 8.59256Z" fill="url(#paint1_linear_342_205)"/>
<path opacity="0.42" d="M41.8216 12.9001H5.86792V15.2696H41.8216V12.9001Z" fill="url(#paint2_linear_342_205)"/>
<path opacity="0.42" d="M15.0455 24.281H10.1875C9.45846 24.281 8.86743 24.8705 8.86743 25.5976V27.4562C8.86743 28.1834 9.45846 28.7729 10.1875 28.7729H15.0455C15.7745 28.7729 16.3656 28.1834 16.3656 27.4562V25.5976C16.3656 24.8705 15.7745 24.281 15.0455 24.281Z" fill="url(#paint3_linear_342_205)"/>
<path d="M30.2345 11.5834C25.4785 11.5808 21.6202 15.4265 21.6167 20.1734C21.6124 24.9203 25.4733 28.772 30.2345 28.7728C34.9861 28.7737 38.8462 24.9255 38.8488 20.1863C38.8514 15.4351 34.9965 11.5851 30.2354 11.5826L30.2345 11.5834ZM33.9382 19.9588H33.8354C33.2315 19.9588 32.6267 19.9588 32.0228 19.958C31.9632 19.958 31.9192 19.9743 31.8734 20.014C31.5261 20.3156 31.1753 20.6137 30.8263 20.9136C30.7978 20.9386 30.7693 20.9635 30.7269 21.0006H33.9365V22.1552H33.8129C32.4082 22.1552 31.0025 22.1552 29.5978 22.1535C29.5226 22.1535 29.4768 22.1742 29.4457 22.2414C29.4181 22.3026 29.3861 22.362 29.3533 22.4206C29.2384 22.63 29.2772 22.8239 29.4241 22.9971C29.6626 23.2797 29.9788 23.4339 30.3373 23.49C31.2064 23.6261 32.0548 23.4917 32.8937 23.2651C33.0691 23.2177 33.2419 23.1599 33.4267 23.1031C33.5892 23.6407 33.7516 24.1776 33.9166 24.7247C33.8181 24.7557 33.7265 24.7868 33.6332 24.8135C32.6535 25.0944 31.6591 25.2615 30.6345 25.2254C29.8811 25.1995 29.1857 24.9962 28.5852 24.5386C27.9373 24.0457 27.5908 23.3883 27.6064 22.5611C27.609 22.4301 27.634 22.3 27.6496 22.1595H26.5291V21.004H26.6224C27.1364 21.004 27.6513 21.0032 28.1654 21.0058C28.225 21.0058 28.2595 20.9842 28.3001 20.9429C28.58 20.6594 28.8634 20.3802 29.1468 20.1001C29.1908 20.0571 29.2392 20.0183 29.3014 19.9623H26.5403V18.8102H26.6517C27.9727 18.8102 29.2928 18.8102 30.6138 18.812C30.6777 18.812 30.7269 18.7973 30.7693 18.7491C30.9421 18.5543 31.1235 18.3665 31.2859 18.1631C31.3982 18.0227 31.463 17.8521 31.4863 17.6702C31.5053 17.5203 31.4699 17.3919 31.355 17.2842C31.1287 17.0714 30.8479 16.9826 30.5559 16.9146C29.7179 16.719 28.8997 16.8112 28.0945 17.0869C28.0574 17.0998 28.0202 17.1119 27.9727 17.1283C27.8137 16.5871 27.6548 16.0486 27.4915 15.4937C27.7196 15.4282 27.9373 15.3567 28.1593 15.3041C28.7891 15.155 29.431 15.1128 30.0755 15.1361C30.6578 15.1568 31.2168 15.2989 31.7464 15.529C31.9978 15.6384 32.2492 15.784 32.4488 15.9693C32.7503 16.2476 33.0129 16.5673 33.1054 16.993C33.146 17.1782 33.209 17.3583 33.2168 17.5505C33.2332 17.9658 33.1149 18.3467 32.9317 18.712C32.9179 18.7396 32.9058 18.7663 32.8859 18.8076H33.9382V19.9588Z" fill="url(#paint4_linear_342_205)"/>
<path d="M33.9355 22.1561H33.8119C32.4072 22.1561 31.0015 22.1561 29.5968 22.1544C29.5216 22.1544 29.4758 22.1751 29.4447 22.2423C29.4171 22.3034 29.3851 22.3629 29.3523 22.4215C29.2374 22.6309 29.2763 22.8239 29.4231 22.9979C29.6616 23.2806 29.9778 23.4348 30.3363 23.4908C31.2054 23.627 32.0547 23.4925 32.8927 23.2659C33.0681 23.2185 33.2409 23.1608 33.4258 23.1039C33.5882 23.6416 33.7506 24.1784 33.9156 24.7256C33.8171 24.7566 33.7255 24.7876 33.6322 24.8143C32.6525 25.0953 31.6581 25.2624 30.6335 25.2262C29.8802 25.1995 29.1847 24.9962 28.5842 24.5395C27.9363 24.0457 27.5899 23.3891 27.6054 22.5619C27.608 22.431 27.6331 22.3009 27.6486 22.1604H26.5281V21.0049C26.5609 21.0049 26.5911 21.0049 26.6214 21.0049C27.1354 21.0049 27.6495 21.004 28.1644 21.0058C28.224 21.0058 28.2585 20.9842 28.2992 20.9429C28.5791 20.6594 28.8624 20.3802 29.1458 20.1002C29.1899 20.0571 29.2374 20.0183 29.3005 19.9623H26.5393V18.8102H26.6508C27.9717 18.8102 29.2918 18.8102 30.6128 18.812C30.6767 18.812 30.726 18.7973 30.7683 18.7491C30.9411 18.5543 31.1225 18.3665 31.2849 18.1631C31.3972 18.0227 31.462 17.8521 31.4854 17.6702C31.5044 17.5203 31.4689 17.3919 31.3549 17.2842C31.1285 17.0714 30.8478 16.9826 30.5558 16.9146C29.7169 16.719 28.8996 16.8112 28.0944 17.0869C28.0572 17.0998 28.0201 17.1119 27.9726 17.1283C27.8128 16.5863 27.6547 16.0486 27.4914 15.4937C27.7186 15.4282 27.9372 15.3567 28.1592 15.3041C28.789 15.155 29.43 15.1128 30.0754 15.1361C30.6568 15.1568 31.2158 15.2989 31.7463 15.529C31.9977 15.6384 32.2491 15.7841 32.4486 15.9685C32.7502 16.2468 33.0128 16.5665 33.1052 16.9921C33.1458 17.1774 33.2089 17.3566 33.2167 17.5496C33.2331 17.9649 33.1147 18.3458 32.9316 18.7111C32.9178 18.7379 32.9057 18.7654 32.8858 18.8068H33.9381V19.958C33.9009 19.958 33.8681 19.958 33.8353 19.958C33.2314 19.958 32.6266 19.958 32.0227 19.9571C31.9631 19.9571 31.9191 19.9735 31.8733 20.0131C31.526 20.3147 31.1752 20.6128 30.8262 20.9127C30.7977 20.9377 30.7692 20.9627 30.7268 20.9997H33.9363V22.1544L33.9355 22.1561Z" fill="url(#paint5_linear_342_205)"/>
</g>
<path d="M64.3685 24.0836V26.8205C64.3685 28.4882 63.9552 29.7732 63.1286 30.6757C62.3217 31.5586 61.1211 32 59.527 32C57.9329 32 56.7225 31.5586 55.8959 30.6757C55.089 29.7732 54.6855 28.4882 54.6855 26.8205V16.1084C54.6855 14.4407 55.089 13.1655 55.8959 12.2826C56.7225 11.3801 57.9329 10.9289 59.527 10.9289C61.1211 10.9289 62.3217 11.3801 63.1286 12.2826C63.9552 13.1655 64.3685 14.4407 64.3685 16.1084V18.1096H61.2983V15.9024C61.2983 15.1569 61.1408 14.6369 60.8259 14.3427C60.5307 14.0287 60.1273 13.8718 59.6156 13.8718C59.1039 13.8718 58.6906 14.0287 58.3757 14.3427C58.0805 14.6369 57.9329 15.1569 57.9329 15.9024V27.0265C57.9329 27.7721 58.0805 28.292 58.3757 28.5863C58.6906 28.8805 59.1039 29.0277 59.6156 29.0277C60.1273 29.0277 60.5307 28.8805 60.8259 28.5863C61.1408 28.292 61.2983 27.7721 61.2983 27.0265V24.0836H64.3685Z" fill="#3A3A3A"/>
<path d="M73.1286 31.7646C73.0893 31.6272 73.0499 31.4997 73.0105 31.382C72.9712 31.2643 72.9318 31.1171 72.8924 30.9406C72.8728 30.764 72.8531 30.5384 72.8334 30.2637C72.8334 29.989 72.8334 29.6457 72.8334 29.2337V25.9965C72.8334 25.0352 72.6661 24.3583 72.3315 23.9659C71.997 23.5735 71.4558 23.3773 70.7079 23.3773H69.5861V31.7646H66.3388V11.1643H71.2393C72.9318 11.1643 74.152 11.5567 74.8999 12.3415C75.6674 13.1263 76.0512 14.3132 76.0512 15.9024V17.521C76.0512 19.6399 75.3427 21.0328 73.9257 21.6999C74.7523 22.0334 75.3132 22.5828 75.6084 23.3479C75.9233 24.0934 76.0807 25.0057 76.0807 26.0848V29.2631C76.0807 29.7732 76.1004 30.2245 76.1398 30.6169C76.1791 30.9896 76.2775 31.3722 76.435 31.7646H73.1286ZM69.5861 14.1072V20.4344H70.8555C71.4656 20.4344 71.9379 20.2775 72.2725 19.9636C72.6268 19.6497 72.8039 19.0807 72.8039 18.2567V16.2261C72.8039 15.4806 72.6661 14.941 72.3906 14.6075C72.1347 14.274 71.7214 14.1072 71.1507 14.1072H69.5861Z" fill="#3A3A3A"/>
<path d="M81.4637 19.8459H85.9214V22.7888H81.4637V28.8217H87.0727V31.7646H78.2164V11.1643H87.0727V14.1072H81.4637V19.8459Z" fill="#3A3A3A"/>
<path d="M89.085 11.1643H94.2217C95.8552 11.1643 97.0655 11.5959 97.8527 12.4592C98.6597 13.3224 99.0631 14.5879 99.0631 16.2555V26.6734C99.0631 28.341 98.6597 29.6065 97.8527 30.4697C97.0655 31.333 95.8552 31.7646 94.2217 31.7646H89.085V11.1643ZM92.3323 14.1072V28.8217H94.1626C94.6743 28.8217 95.0778 28.6745 95.373 28.3803C95.6682 28.086 95.8158 27.5661 95.8158 26.8205V16.1084C95.8158 15.3629 95.6682 14.8429 95.373 14.5487C95.0778 14.2544 94.6743 14.1072 94.1626 14.1072H92.3323Z" fill="#3A3A3A"/>
<path d="M101.136 11.1643H104.383V31.7646H101.136V11.1643Z" fill="#3A3A3A"/>
<path d="M105.813 11.1643H115.85V14.1072H112.455V31.7646H109.208V14.1072H105.813V11.1643Z" fill="#3A3A3A"/>
<path d="M122.18 11.1643C123.873 11.1643 125.093 11.5567 125.841 12.3415C126.609 13.1263 126.992 14.3132 126.992 15.9024V16.6381C126.992 17.6975 126.825 18.5706 126.491 19.2573C126.156 19.944 125.625 20.4541 124.896 20.7876C125.782 21.1211 126.402 21.6705 126.756 22.4356C127.13 23.1811 127.317 24.1032 127.317 25.2019V26.8794C127.317 28.4685 126.904 29.6849 126.077 30.5286C125.251 31.3526 124.021 31.7646 122.387 31.7646H117.28V11.1643H122.18ZM120.527 22.4945V28.8217H122.387C122.938 28.8217 123.351 28.6745 123.627 28.3803C123.922 28.086 124.07 27.5562 124.07 26.7911V24.9959C124.07 24.0346 123.902 23.3773 123.568 23.0242C123.253 22.671 122.722 22.4945 121.974 22.4945H120.527ZM120.527 14.1072V19.5516H121.797C122.407 19.5516 122.879 19.3946 123.214 19.0807C123.568 18.7668 123.745 18.1978 123.745 17.3738V16.2261C123.745 15.4806 123.607 14.941 123.332 14.6075C123.076 14.274 122.663 14.1072 122.092 14.1072H120.527Z" fill="#3A3A3A"/>
<path d="M132.52 19.8459H136.978V22.7888H132.52V28.8217H138.129V31.7646H129.273V11.1643H138.129V14.1072H132.52V19.8459Z" fill="#3A3A3A"/>
<path d="M146.931 31.7646C146.892 31.6272 146.853 31.4997 146.813 31.382C146.774 31.2643 146.735 31.1171 146.695 30.9406C146.675 30.764 146.656 30.5384 146.636 30.2637C146.636 29.989 146.636 29.6457 146.636 29.2337V25.9965C146.636 25.0352 146.469 24.3583 146.134 23.9659C145.8 23.5735 145.258 23.3773 144.511 23.3773H143.389V31.7646H140.141V11.1643H145.042C146.735 11.1643 147.955 11.5567 148.703 12.3415C149.47 13.1263 149.854 14.3132 149.854 15.9024V17.521C149.854 19.6399 149.145 21.0328 147.728 21.6999C148.555 22.0334 149.116 22.5828 149.411 23.3479C149.726 24.0934 149.883 25.0057 149.883 26.0848V29.2631C149.883 29.7732 149.903 30.2245 149.942 30.6169C149.982 30.9896 150.08 31.3722 150.238 31.7646H146.931ZM143.389 14.1072V20.4344H144.658C145.268 20.4344 145.741 20.2775 146.075 19.9636C146.429 19.6497 146.607 19.0807 146.607 18.2567V16.2261C146.607 15.4806 146.469 14.941 146.193 14.6075C145.937 14.274 145.524 14.1072 144.953 14.1072H143.389Z" fill="#3A3A3A"/>
<path d="M158.809 31.7646C158.77 31.6272 158.73 31.4997 158.691 31.382C158.651 31.2643 158.612 31.1171 158.573 30.9406C158.553 30.764 158.533 30.5384 158.514 30.2637C158.514 29.989 158.514 29.6457 158.514 29.2337V25.9965C158.514 25.0352 158.346 24.3583 158.012 23.9659C157.677 23.5735 157.136 23.3773 156.388 23.3773H155.266V31.7646H152.019V11.1643H156.92C158.612 11.1643 159.832 11.5567 160.58 12.3415C161.348 13.1263 161.732 14.3132 161.732 15.9024V17.521C161.732 19.6399 161.023 21.0328 159.606 21.6999C160.433 22.0334 160.993 22.5828 161.289 23.3479C161.604 24.0934 161.761 25.0057 161.761 26.0848V29.2631C161.761 29.7732 161.781 30.2245 161.82 30.6169C161.859 30.9896 161.958 31.3722 162.115 31.7646H158.809ZM155.266 14.1072V20.4344H156.536C157.146 20.4344 157.618 20.2775 157.953 19.9636C158.307 19.6497 158.484 19.0807 158.484 18.2567V16.2261C158.484 15.4806 158.346 14.941 158.071 14.6075C157.815 14.274 157.402 14.1072 156.831 14.1072H155.266Z" fill="#3A3A3A"/>
<path d="M166.649 24.9371L162.546 11.1643H165.941L168.42 20.5522L170.9 11.1643H174L169.896 24.9371V31.7646H166.649V24.9371Z" fill="#3A3A3A"/>
<defs>
<linearGradient id="paint0_linear_342_205" x1="34.5511" y1="2.6407" x2="4.52854" y2="28.0782" gradientUnits="userSpaceOnUse">
<stop stop-color="#FA2C21"/>
<stop offset="1" stop-color="#AE0900"/>
</linearGradient>
<linearGradient id="paint1_linear_342_205" x1="45.0346" y1="7.76191" x2="15.2172" y2="25.3257" gradientUnits="userSpaceOnUse">
<stop stop-color="#FA2C21"/>
<stop offset="1" stop-color="#AE0900"/>
</linearGradient>
<linearGradient id="paint2_linear_342_205" x1="1.62339" y1="14.0849" x2="50.1465" y2="14.0849" gradientUnits="userSpaceOnUse">
<stop stop-color="white"/>
<stop offset="1" stop-color="white" stop-opacity="0"/>
</linearGradient>
<linearGradient id="paint3_linear_342_205" x1="8.86743" y1="26.5265" x2="18.3716" y2="26.5265" gradientUnits="userSpaceOnUse">
<stop stop-color="white"/>
<stop offset="1" stop-color="white" stop-opacity="0"/>
</linearGradient>
<linearGradient id="paint4_linear_342_205" x1="26.5705" y1="17.3359" x2="54.7876" y2="39.3494" gradientUnits="userSpaceOnUse">
<stop stop-color="white"/>
<stop offset="0.72" stop-color="white" stop-opacity="0"/>
</linearGradient>
<linearGradient id="paint5_linear_342_205" x1="46.5352" y1="10.8329" x2="18.0491" y2="27.6122" gradientUnits="userSpaceOnUse">
<stop stop-color="#FA2C21"/>
<stop offset="1" stop-color="#AE0900"/>
</linearGradient>
<clipPath id="clip0_342_205">
<rect width="41.8215" height="31.7646" fill="white"/>
</clipPath>
</defs>
</svg>
