<svg width="40" height="40" viewBox="0 0 40 40" fill="none" xmlns="http://www.w3.org/2000/svg">
    <path d="M6.66675 9.99992V31.6666C6.66675 32.9927 7.19353 34.2644 8.13121 35.2021C9.0689 36.1398 10.3407 36.6666 11.6667 36.6666H28.3334C29.6595 36.6666 30.9313 36.1398 31.869 35.2021C32.8066 34.2644 33.3334 32.9927 33.3334 31.6666V14.9999C33.3334 13.6738 32.8066 12.4021 31.869 11.4644C30.9313 10.5267 29.6595 9.99992 28.3334 9.99992H6.66675ZM6.66675 9.99992V8.33325" stroke="currentColor" stroke-width="2"/>
    <path d="M20 26.6666C22.7614 26.6666 25 24.428 25 21.6666C25 18.9052 22.7614 16.6666 20 16.6666C17.2386 16.6666 15 18.9052 15 21.6666C15 24.428 17.2386 26.6666 20 26.6666Z" stroke="currentColor" stroke-width="2"/>
    <mask id="path-3-inside-1_334_38" fill="currentColor">
        <path d="M30.0001 9.99996V11.25H31.2501V9.99996H30.0001ZM8.45008 11.25H30.0001V8.74996H8.45175L8.45008 11.25ZM31.2501 9.99996V7.17663H28.7501V9.99996H31.2501ZM26.0184 2.63996L8.02342 5.20996L8.37675 7.68496L26.3717 5.11663L26.0184 2.63996ZM8.02342 5.20996C7.29951 5.3128 6.63712 5.67367 6.15816 6.22613C5.6792 6.77858 5.41591 7.48545 5.41675 8.21663H7.91675C7.91633 8.08758 7.96271 7.96276 8.0473 7.86531C8.13188 7.76785 8.24893 7.7027 8.37675 7.68496L8.02342 5.20996ZM31.2501 7.17663C31.25 6.52 31.1088 5.87105 30.8361 5.27373C30.5634 4.67641 30.1656 4.14465 29.6695 3.71447C29.1734 3.28428 28.5907 2.96572 27.9608 2.78033C27.3308 2.59495 26.6684 2.54708 26.0184 2.63996L26.3717 5.11663C26.6672 5.07436 26.9683 5.09441 27.2546 5.17863C27.5409 5.26285 27.8058 5.4076 28.0314 5.60309C28.2569 5.79859 28.4378 6.04026 28.5618 6.31173C28.6858 6.58321 28.75 6.87817 28.7501 7.17663H31.2501ZM8.45175 8.74996C8.38143 8.75018 8.31176 8.73649 8.24675 8.70968C8.18175 8.68288 8.12268 8.64348 8.07296 8.59375C8.02323 8.54403 7.98383 8.48496 7.95703 8.41996C7.93022 8.35495 7.91653 8.28694 7.91675 8.21663H5.41675C5.41653 8.61525 5.49488 9.00834 5.64733 9.37666C5.79977 9.74498 6.02332 10.0796 6.30519 10.3615C6.58706 10.6434 6.92172 10.8669 7.29005 11.0194C7.65837 11.1718 8.05146 11.2502 8.45008 11.25L8.45175 8.74996Z"/>
    </mask>
    <path d="M30.0001 9.99996V11.25H31.2501V9.99996H30.0001ZM8.45008 11.25H30.0001V8.74996H8.45175L8.45008 11.25ZM31.2501 9.99996V7.17663H28.7501V9.99996H31.2501ZM26.0184 2.63996L8.02342 5.20996L8.37675 7.68496L26.3717 5.11663L26.0184 2.63996ZM8.02342 5.20996C7.29951 5.3128 6.63712 5.67367 6.15816 6.22613C5.6792 6.77858 5.41591 7.48545 5.41675 8.21663H7.91675C7.91633 8.08758 7.96271 7.96276 8.0473 7.86531C8.13188 7.76785 8.24893 7.7027 8.37675 7.68496L8.02342 5.20996ZM31.2501 7.17663C31.25 6.52 31.1088 5.87105 30.8361 5.27373C30.5634 4.67641 30.1656 4.14465 29.6695 3.71447C29.1734 3.28428 28.5907 2.96572 27.9608 2.78033C27.3308 2.59495 26.6684 2.54708 26.0184 2.63996L26.3717 5.11663C26.6672 5.07436 26.9683 5.09441 27.2546 5.17863C27.5409 5.26285 27.8058 5.4076 28.0314 5.60309C28.2569 5.79859 28.4378 6.04026 28.5618 6.31173C28.6858 6.58321 28.75 6.87817 28.7501 7.17663H31.2501ZM8.45175 8.74996C8.38143 8.75018 8.31176 8.73649 8.24675 8.70968C8.18175 8.68288 8.12268 8.64348 8.07296 8.59375C8.02323 8.54403 7.98383 8.48496 7.95703 8.41996C7.93022 8.35495 7.91653 8.28694 7.91675 8.21663H5.41675C5.41653 8.61525 5.49488 9.00834 5.64733 9.37666C5.79977 9.74498 6.02332 10.0796 6.30519 10.3615C6.58706 10.6434 6.92172 10.8669 7.29005 11.0194C7.65837 11.1718 8.05146 11.2502 8.45008 11.25L8.45175 8.74996Z" fill="currentColor"/>
    <path d="M26.0184 2.63996L26.6784 2.54568L25.3584 2.73412L26.0184 2.63996ZM26.8551 3.78234L26.6784 2.54568L25.3585 2.73424L25.5351 3.97091L26.8551 3.78234ZM8.86007 6.3558L8.6834 5.11747L7.36343 5.30578L7.5401 6.54412L8.86007 6.3558ZM7.78508 8.74952L7.78342 11.2495L9.11675 11.2504L9.11842 8.7504L7.78508 8.74952ZM31.2501 6.50996H28.7501V7.84329H31.2501V6.50996ZM7.36344 5.30418L7.71677 7.77918L9.03673 7.59074L8.68339 5.11574L7.36344 5.30418ZM27.0317 5.02247L26.6784 2.5458L25.3584 2.73412L25.7118 5.21078L27.0317 5.02247ZM5.41675 8.88329H7.91675V7.54996H5.41675V8.88329ZM30.0001 9.99996V8.66663H28.6667V9.99996H30.0001ZM31.2501 11.25V12.5833H32.5834V11.25H31.2501ZM26.0184 2.63996L26.2069 3.9599L26.207 3.95989L26.0184 2.63996ZM8.45008 11.25V9.91663L8.44935 9.91663L8.45008 11.25ZM30.0001 8.74996H31.3334V7.41663H30.0001V8.74996ZM8.45175 8.74996V7.41662L8.44758 7.41663L8.45175 8.74996ZM31.2501 7.17663H32.5834V7.17646L31.2501 7.17663ZM28.7501 7.17663H30.0834V7.17619L28.7501 7.17663ZM28.7501 9.99996H27.4167V11.3333H28.7501V9.99996ZM8.02342 5.20996L8.21096 6.53004L8.21193 6.5299L8.02342 5.20996ZM8.37675 7.68496L8.56008 9.00564L8.56514 9.00492L8.37675 7.68496ZM26.3717 5.11663L26.5601 6.43658L26.5606 6.43652L26.3717 5.11663ZM5.41675 8.21663L6.75009 8.21736L6.75008 8.21509L5.41675 8.21663ZM7.91675 8.21663L9.2501 8.2208L9.25008 8.2123L7.91675 8.21663ZM28.6667 9.99996V11.25H31.3334V9.99996H28.6667ZM30.0001 12.5833H31.2501V9.91663H30.0001V12.5833ZM32.5834 11.25V9.99996H29.9167V11.25H32.5834ZM31.2501 8.66663H30.0001V11.3333H31.2501V8.66663ZM8.45008 12.5833H30.0001V9.91663H8.45008V12.5833ZM31.3334 11.25V8.74996H28.6667V11.25H31.3334ZM30.0001 7.41663H8.45175V10.0833H30.0001V7.41663ZM32.5834 9.99996V7.17663H29.9167V9.99996H32.5834ZM27.4167 7.17663V9.99996H30.0834V7.17663H27.4167ZM28.7501 11.3333H31.2501V8.66663H28.7501V11.3333ZM25.8299 1.32002L7.83491 3.89002L8.21193 6.5299L26.2069 3.9599L25.8299 1.32002ZM8.56514 9.00492L26.5601 6.43658L26.1834 3.79667L8.18836 6.365L8.56514 9.00492ZM7.83587 3.88988C6.79377 4.03793 5.84021 4.55742 5.15072 5.35272L7.1656 7.09954C7.43403 6.78992 7.80526 6.58768 8.21096 6.53004L7.83587 3.88988ZM5.15072 5.35272C4.46123 6.14801 4.08221 7.16559 4.08342 8.21816L6.75008 8.21509C6.74961 7.80531 6.89717 7.40916 7.1656 7.09954L5.15072 5.35272ZM9.25008 8.2123C9.25071 8.40586 9.18113 8.59309 9.05426 8.73927L7.04034 6.99134C6.74429 7.33244 6.58196 7.76931 6.58342 8.22096L9.25008 8.2123ZM9.05426 8.73927C8.93459 8.87715 8.76254 8.97753 8.56008 9.00563L8.19342 6.36429C7.73533 6.42788 7.32917 6.65856 7.04034 6.99134L9.05426 8.73927ZM32.5834 7.17646C32.5833 6.32881 32.4011 5.49108 32.049 4.71999L29.6232 5.82747C29.8166 6.25103 29.9167 6.71119 29.9167 7.1768L32.5834 7.17646ZM32.049 4.71999C31.697 3.9489 31.1834 3.26245 30.543 2.70713L28.796 4.72181C29.1477 5.02685 29.4298 5.40391 29.6232 5.82747L32.049 4.71999ZM30.543 2.70713C29.9026 2.1518 29.1504 1.74055 28.3372 1.50124L27.5843 4.05942C28.031 4.19088 28.4442 4.41677 28.796 4.72181L30.543 2.70713ZM28.3372 1.50124C27.524 1.26193 26.6689 1.20013 25.8298 1.32003L26.207 3.95989C26.6679 3.89402 27.1376 3.92797 27.5843 4.05942L28.3372 1.50124ZM26.5606 6.43652C26.672 6.42058 26.7802 6.42889 26.8784 6.45778L27.6308 3.89948C27.1564 3.75993 26.6624 3.72814 26.183 3.79673L26.5606 6.43652ZM26.8784 6.45778C26.9815 6.4881 27.0768 6.54021 27.158 6.61059L28.9047 4.5956C28.5349 4.27499 28.1004 4.03759 27.6308 3.89948L26.8784 6.45778ZM27.158 6.61059C27.2392 6.68096 27.3043 6.76796 27.349 6.8657L29.7746 5.75777C29.5712 5.31255 29.2746 4.91621 28.9047 4.5956L27.158 6.61059ZM27.349 6.8657C27.3936 6.96343 27.4167 7.06962 27.4167 7.17706L30.0834 7.17619C30.0833 6.68672 29.9779 6.20299 29.7746 5.75777L27.349 6.8657ZM8.44758 7.41663C8.55305 7.4163 8.65755 7.43683 8.75507 7.47705L7.73844 9.94232C7.96597 10.0361 8.20981 10.0841 8.45592 10.0833L8.44758 7.41663ZM8.75507 7.47705C8.85259 7.51726 8.94118 7.57636 9.01577 7.65094L7.13015 9.53656C7.30418 9.71059 7.5109 9.84849 7.73844 9.94232L8.75507 7.47705ZM9.01577 7.65094C9.09035 7.72553 9.14945 7.81412 9.18966 7.91164L6.72439 8.92827C6.81822 9.1558 6.95612 9.36253 7.13015 9.53656L9.01577 7.65094ZM9.18966 7.91164C9.22826 8.00524 9.25042 8.11114 9.25008 8.2208L6.58342 8.21245C6.58264 8.46275 6.63217 8.70465 6.72439 8.92827L9.18966 7.91164ZM4.08342 8.21589C4.0831 8.79048 4.19618 9.35703 4.41535 9.88657L6.87931 8.86676C6.79359 8.65965 6.74996 8.44002 6.75008 8.21736L4.08342 8.21589ZM4.41535 9.88657C4.6348 10.4168 4.95661 10.8986 5.36238 11.3043L7.248 9.41871C7.09003 9.26074 6.96475 9.07318 6.87931 8.86676L4.41535 9.88657ZM5.36238 11.3043C5.76815 11.7101 6.24992 12.0319 6.78014 12.2514L7.79995 9.7874C7.59353 9.70196 7.40597 9.57668 7.248 9.41871L5.36238 11.3043ZM6.78014 12.2514C7.30968 12.4705 7.87623 12.5836 8.45082 12.5833L8.44935 9.91663C8.22669 9.91675 8.00706 9.87312 7.79995 9.7874L6.78014 12.2514Z" fill="currentColor" mask="url(#path-3-inside-1_334_38)"/>
    <path d="M16.6667 31.6666H23.3334" stroke="currentColor" stroke-width="2" stroke-linecap="round"/>
</svg>
