<svg width="257" height="46" viewBox="0 0 257 46" fill="none" xmlns="http://www.w3.org/2000/svg">
    <path d="M20.8568 28.7179V34.6927C20.8568 38.3333 19.9665 41.1387 18.1861 43.1089C16.448 45.0363 13.8621 46 10.4284 46C6.99464 46 4.38755 45.0363 2.60709 43.1089C0.869031 41.1387 0 38.3333 0 34.6927V11.3073C0 7.66667 0.869031 4.88268 2.60709 2.9553C4.38755 0.985101 6.99464 0 10.4284 0C13.8621 0 16.448 0.985101 18.1861 2.9553C19.9665 4.88268 20.8568 7.66667 20.8568 11.3073V15.676H14.2436V10.8575C14.2436 9.22998 13.9045 8.09497 13.2262 7.45251C12.5904 6.76722 11.7213 6.42458 10.6191 6.42458C9.51695 6.42458 8.62673 6.76722 7.94846 7.45251C7.31258 8.09497 6.99464 9.22998 6.99464 10.8575V35.1425C6.99464 36.77 7.31258 37.905 7.94846 38.5475C8.62673 39.1899 9.51695 39.5112 10.6191 39.5112C11.7213 39.5112 12.5904 39.1899 13.2262 38.5475C13.9045 37.905 14.2436 36.77 14.2436 35.1425V28.7179H20.8568Z" fill="currentColor"/>
    <path d="M39.7259 45.486C39.6411 45.1862 39.5563 44.9078 39.4715 44.6508C39.3868 44.3939 39.302 44.0726 39.2172 43.6872C39.1748 43.3017 39.1324 42.8091 39.09 42.2095C39.09 41.6099 39.09 40.8603 39.09 39.9609V32.8939C39.09 30.7952 38.7297 29.3175 38.009 28.4609C37.2884 27.6043 36.1226 27.176 34.5117 27.176H32.0954V45.486H25.1007V0.513964H35.6563C39.302 0.513964 41.9303 1.37058 43.5412 3.0838C45.1944 4.79702 46.0211 7.38827 46.0211 10.8575V14.3911C46.0211 19.0168 44.495 22.0577 41.4428 23.514C43.2232 24.2421 44.4314 25.4413 45.0673 27.1117C45.7455 28.7393 46.0847 30.7309 46.0847 33.0866V40.0251C46.0847 41.1387 46.1271 42.1238 46.2118 42.9804C46.2966 43.7942 46.5086 44.6294 46.8477 45.486H39.7259ZM32.0954 6.93855V20.7514H34.8297C36.1438 20.7514 37.1612 20.4088 37.8819 19.7235C38.6449 19.0382 39.0264 17.7961 39.0264 15.9972V11.5642C39.0264 9.93668 38.7297 8.75884 38.1362 8.03073C37.5851 7.30261 36.6949 6.93855 35.4655 6.93855H32.0954Z" fill="currentColor"/>
    <path d="M57.6795 19.4665H67.2812V25.8911H57.6795V39.0615H69.7611V45.486H50.6848V0.513964H69.7611V6.93855H57.6795V19.4665Z" fill="currentColor"/>
    <path d="M74.0955 0.513964H85.1598C88.6783 0.513964 91.2854 1.45624 92.9811 3.34078C94.7191 5.22532 95.5882 7.98789 95.5882 11.6285V34.3715C95.5882 38.0121 94.7191 40.7747 92.9811 42.6592C91.2854 44.5438 88.6783 45.486 85.1598 45.486H74.0955V0.513964ZM81.0902 6.93855V39.0615H85.0326C86.1348 39.0615 87.0038 38.7402 87.6397 38.0978C88.2756 37.4553 88.5935 36.3203 88.5935 34.6927V11.3073C88.5935 9.6797 88.2756 8.54469 87.6397 7.90223C87.0038 7.25978 86.1348 6.93855 85.0326 6.93855H81.0902Z" fill="currentColor"/>
    <path d="M100.052 0.513964H107.047V45.486H100.052V0.513964Z" fill="currentColor"/>
    <path d="M110.126 0.513964H131.746V6.93855H124.434V45.486H117.439V6.93855H110.126V0.513964Z" fill="currentColor"/>
    <path d="M145.382 0.513964C149.028 0.513964 151.656 1.37058 153.267 3.0838C154.92 4.79702 155.747 7.38827 155.747 10.8575V12.4637C155.747 14.7765 155.387 16.6825 154.666 18.1816C153.945 19.6806 152.801 20.7942 151.232 21.5223C153.14 22.2505 154.475 23.4497 155.238 25.1201C156.044 26.7477 156.447 28.7607 156.447 31.1592V34.8212C156.447 38.2905 155.556 40.946 153.776 42.7877C151.995 44.5866 149.346 45.486 145.827 45.486H134.827V0.513964H145.382ZM141.821 25.2486V39.0615H145.827C147.014 39.0615 147.905 38.7402 148.498 38.0978C149.134 37.4553 149.452 36.2989 149.452 34.6285V30.7095C149.452 28.6108 149.092 27.176 148.371 26.405C147.693 25.6341 146.548 25.2486 144.937 25.2486H141.821ZM141.821 6.93855V18.824H144.556C145.87 18.824 146.887 18.4814 147.608 17.7961C148.371 17.1108 148.752 15.8687 148.752 14.0698V11.5642C148.752 9.93668 148.456 8.75884 147.862 8.03073C147.311 7.30261 146.421 6.93855 145.192 6.93855H141.821Z" fill="currentColor"/>
    <path d="M167.654 19.4665H177.256V25.8911H167.654V39.0615H179.736V45.486H160.659V0.513964H179.736V6.93855H167.654V19.4665Z" fill="currentColor"/>
    <path d="M198.695 45.486C198.61 45.1862 198.525 44.9078 198.441 44.6508C198.356 44.3939 198.271 44.0726 198.186 43.6872C198.144 43.3017 198.102 42.8091 198.059 42.2095C198.059 41.6099 198.059 40.8603 198.059 39.9609V32.8939C198.059 30.7952 197.699 29.3175 196.978 28.4609C196.258 27.6043 195.092 27.176 193.481 27.176H191.065V45.486H184.07V0.513964H194.625C198.271 0.513964 200.899 1.37058 202.51 3.0838C204.164 4.79702 204.99 7.38827 204.99 10.8575V14.3911C204.99 19.0168 203.464 22.0577 200.412 23.514C202.192 24.2421 203.401 25.4413 204.036 27.1117C204.715 28.7393 205.054 30.7309 205.054 33.0866V40.0251C205.054 41.1387 205.096 42.1238 205.181 42.9804C205.266 43.7942 205.478 44.6294 205.817 45.486H198.695ZM191.065 6.93855V20.7514H193.799C195.113 20.7514 196.13 20.4088 196.851 19.7235C197.614 19.0382 197.996 17.7961 197.996 15.9972V11.5642C197.996 9.93668 197.699 8.75884 197.105 8.03073C196.554 7.30261 195.664 6.93855 194.435 6.93855H191.065Z" fill="currentColor"/>
    <path d="M224.279 45.486C224.194 45.1862 224.11 44.9078 224.025 44.6508C223.94 44.3939 223.855 44.0726 223.77 43.6872C223.728 43.3017 223.686 42.8091 223.643 42.2095C223.643 41.6099 223.643 40.8603 223.643 39.9609V32.8939C223.643 30.7952 223.283 29.3175 222.562 28.4609C221.842 27.6043 220.676 27.176 219.065 27.176H216.649V45.486H209.654V0.513964H220.21C223.855 0.513964 226.484 1.37058 228.094 3.0838C229.748 4.79702 230.574 7.38827 230.574 10.8575V14.3911C230.574 19.0168 229.048 22.0577 225.996 23.514C227.777 24.2421 228.985 25.4413 229.621 27.1117C230.299 28.7393 230.638 30.7309 230.638 33.0866V40.0251C230.638 41.1387 230.68 42.1238 230.765 42.9804C230.85 43.7942 231.062 44.6294 231.401 45.486H224.279ZM216.649 6.93855V20.7514H219.383C220.697 20.7514 221.714 20.4088 222.435 19.7235C223.198 19.0382 223.58 17.7961 223.58 15.9972V11.5642C223.58 9.93668 223.283 8.75884 222.689 8.03073C222.138 7.30261 221.248 6.93855 220.019 6.93855H216.649Z" fill="currentColor"/>
    <path d="M241.167 30.581L232.328 0.513964H239.641L244.982 21.0084L250.323 0.513964H257L248.161 30.581V45.486H241.167V30.581Z" fill="currentColor"/>
</svg>
